<svg width="160" height="57" viewBox="0 0 160 57" fill="none" xmlns="http://www.w3.org/2000/svg">
<path d="M103.257 24.6891L113.593 14.7277V7.89197H85.9688V15.6714H100.132L105.385 12.2601L92.2712 25.5722L93.6755 31.3473H97.4132C102.435 31.3473 105.415 33.2348 105.415 36.5942V36.7111C105.415 39.7761 103.022 41.7199 99.6353 41.7199C95.4908 41.7199 92.5709 39.9536 89.7665 36.7674L83.5754 42.7199C87.0777 46.9062 92.1598 49.85 99.5197 49.85C108.631 49.85 114.235 44.1312 114.235 36.3518V36.2349C114.235 28.5723 108.802 25.6285 103.257 24.6847V24.6891Z" fill="white"/>
<path d="M138.336 7.18225C125.722 7.18225 116.552 16.7886 116.552 28.5163V28.6332C116.552 40.3608 125.603 49.8503 138.216 49.8503C150.829 49.8503 160 40.2439 160 28.5163V28.3994C160 16.6717 150.949 7.18225 138.336 7.18225ZM150.602 28.6332C150.602 35.707 145.58 41.4821 138.336 41.4821C131.091 41.4821 125.954 35.5901 125.954 28.5163V28.3994C125.954 21.3256 130.976 15.5505 138.216 15.5505C145.456 15.5505 150.598 21.4425 150.598 28.5163V28.6332H150.602Z" fill="white"/>
<path d="M9.355 44.4359L11.089 43.0852L20.0245 36.1239C27.2645 30.4657 30.771 27.05 30.771 20.1537V20.0368C30.771 12.3136 25.1666 7.30481 16.6978 7.30481C9.39781 7.30481 5.48453 10.3092 1.45564 15.8505L7.76228 20.9763C10.7979 17.2056 12.96 15.4393 16.1155 15.4393C19.2709 15.4393 21.6043 17.3268 21.6043 20.8031C21.6043 24.2794 19.6177 26.4613 14.5399 30.7038L0.929016 41.9596V49.1503H31.182V41.3103H15.5931L9.355 44.4359Z" fill="white"/>
<path d="M55.617 4.47339L57.685 6.47778L55.6984 8.56443L53.6304 6.56004L55.617 4.47339Z" fill="white"/>
<path d="M60.3518 6.56004L62.424 8.56443L64.4107 6.47778L62.3384 4.47339L60.3518 6.56004Z" fill="white"/>
<path d="M57.4365 9.19155L59.0506 10.7544L60.5963 9.12661L58.9864 7.56812L57.4365 9.19155Z" fill="white"/>
<path d="M63.3502 10.0884L64.96 11.6469L66.5099 10.0235L64.8958 8.46063L63.3502 10.0884Z" fill="white"/>
<path d="M54.8039 11.6817L56.4137 13.2445L57.9594 11.6167L56.3495 10.0539L54.8039 11.6817Z" fill="white"/>
<path d="M60.2105 11.8717L61.8203 13.4302L63.3703 11.8068L61.7561 10.244L60.2105 11.8717Z" fill="white"/>
<path d="M58.0956 13.7416L59.2302 14.8412L60.3177 13.694L59.1831 12.5944L58.0956 13.7416Z" fill="white"/>
<path d="M62.3725 14.6043L63.5071 15.7039L64.5946 14.5566L63.46 13.4614L62.3725 14.6043Z" fill="white"/>
<path d="M75.2319 5.24444L71.7155 5.89636L72.3595 9.44767L75.8759 8.79574L75.2319 5.24444Z" fill="white"/>
<path d="M69.9489 6.85716L67.1273 7.37976L67.6433 10.2286L70.465 9.70595L69.9489 6.85716Z" fill="white"/>
<path d="M75.4026 10.8367L72.5811 11.3598L73.0976 14.2085L75.9192 13.6854L75.4026 10.8367Z" fill="white"/>
<path d="M70.8865 11.3695L68.6881 11.7767L69.09 13.9952L71.2884 13.5881L70.8865 11.3695Z" fill="white"/>
<path d="M75.1597 15.5818L72.9613 15.989L73.3632 18.2076L75.5616 17.8004L75.1597 15.5818Z" fill="white"/>
<path d="M67.5946 12.2695L65.3962 12.6767L65.7982 14.8953L67.9965 14.4881L67.5946 12.2695Z" fill="white"/>
<path d="M71.5782 15.1759L69.3798 15.5831L69.7817 17.8016L71.9801 17.3945L71.5782 15.1759Z" fill="white"/>
<path d="M68.1296 15.5562L66.584 15.8427L66.8667 17.4012L68.4122 17.1147L68.1296 15.5562Z" fill="white"/>
<path d="M71.0993 18.7853L69.5536 19.071L69.8355 20.6296L71.3811 20.3439L71.0993 18.7853Z" fill="white"/>
<path d="M82.1757 17.5292L80.6386 20.789L83.8711 22.3389L85.4039 19.079L82.1757 17.5292Z" fill="white"/>
<path d="M77.5907 16.0237L76.3619 18.6385L78.9522 19.881L80.1852 17.2662L77.5907 16.0237Z" fill="white"/>
<path d="M79.7134 22.4639L78.4803 25.0787L81.0706 26.3212L82.3037 23.7064L79.7134 22.4639Z" fill="white"/>
<path d="M76.3178 20.5051L75.3587 22.5398L77.3753 23.5096L78.3343 21.4705L76.3178 20.5051Z" fill="white"/>
<path d="M77.3425 26.444L76.3835 28.4787L78.4001 29.4485L79.3591 27.4138L77.3425 26.444Z" fill="white"/>
<path d="M73.1237 19.2923L72.1647 21.327L74.1813 22.2967L75.1403 20.2577L73.1237 19.2923Z" fill="white"/>
<path d="M74.6735 24.0023L73.7145 26.037L75.7311 27.0067L76.6901 24.9677L74.6735 24.0023Z" fill="white"/>
<path d="M72.2464 22.5645L71.5742 23.9974L72.9914 24.6771L73.6679 23.2485L72.2464 22.5645Z" fill="white"/>
<path d="M72.7873 26.9339L72.1139 28.3646L73.5327 29.0473L74.2061 27.6166L72.7873 26.9339Z" fill="white"/>
<path d="M83.9183 33.1366L80.78 34.8726L82.5011 38.0372L85.6352 36.3012L83.9183 33.1366Z" fill="white"/>
<path d="M81.0696 29.2096L78.5563 30.5992L79.935 33.1405L82.4525 31.7465L81.0696 29.2096Z" fill="white"/>
<path d="M79.0567 35.6826L76.5392 37.0766L77.9221 39.6135L80.4353 38.2238L79.0567 35.6826Z" fill="white"/>
<path d="M77.4385 32.0885L75.4818 33.1708L76.5565 35.1492L78.5131 34.0626L77.4385 32.0885Z" fill="white"/>
<path d="M74.8282 37.5079L72.8672 38.5945L73.9419 40.5686L75.9028 39.4864L74.8282 37.5079Z" fill="white"/>
<path d="M75.5561 29.2186L73.5952 30.3052L74.6698 32.2793L76.6307 31.197L75.5561 29.2186Z" fill="white"/>
<path d="M74.0779 33.954L72.1212 35.0407L73.1959 37.0147L75.1525 35.9325L74.0779 33.954Z" fill="white"/>
<path d="M72.9422 31.3568L71.5636 32.1231L72.3214 33.5127L73.7001 32.7508L72.9422 31.3568Z" fill="white"/>
<path d="M70.849 35.218L69.4703 35.9799L70.2239 37.3695L71.6025 36.6076L70.849 35.218Z" fill="white"/>
<path d="M72.7368 46.3824L72.2986 49.9656L75.8466 50.4092L76.2849 46.826L72.7368 46.3824Z" fill="white"/>
<path d="M73.3965 41.5914L73.0445 44.4656L75.8913 44.8221L76.2434 41.9479L73.3965 41.5914Z" fill="white"/>
<path d="M68.0081 45.6574L67.656 48.5316L70.5029 48.8881L70.8549 46.0139L68.0081 45.6574Z" fill="white"/>
<path d="M69.4254 41.8761L69.1516 44.1145L71.3697 44.3919L71.6434 42.1534L69.4254 41.8761Z" fill="white"/>
<path d="M64.1563 44.7312L63.8826 46.9697L66.1006 47.247L66.3744 45.0086L64.1563 44.7312Z" fill="white"/>
<path d="M69.5453 38.4228L69.2712 40.6612L71.4892 40.9389L71.7633 38.7006L69.5453 38.4228Z" fill="white"/>
<path d="M65.6053 41.395L65.3311 43.6334L67.5491 43.9112L67.8233 41.6728L65.6053 41.395Z" fill="white"/>
<path d="M66.8489 38.7045L66.6566 40.277L68.216 40.472L68.4083 38.8995L66.8489 38.7045Z" fill="white"/>
<path d="M62.9124 40.5996L62.7201 42.1721L64.2795 42.3671L64.4719 40.7946L62.9124 40.5996Z" fill="white"/>
<path d="M62.152 53.4086L59.5317 50.9496L57.0998 53.5991L59.7201 56.0537L62.152 53.4086Z" fill="white"/>
<path d="M61.6667 2.85355L59.0465 0.394592L56.6146 3.0397L59.2348 5.49865L61.6667 2.85355Z" fill="white"/>
<path d="M64.9458 49.4442L62.8436 47.4745L60.8912 49.6001L62.9977 51.5655L64.9458 49.4442Z" fill="white"/>
<path d="M58.2247 49.5577L56.1225 47.5879L54.1702 49.7135L56.2724 51.6789L58.2247 49.5577Z" fill="white"/>
<path d="M61.0919 46.8761L59.4563 45.3436L57.9364 46.993L59.5719 48.5255L61.0919 46.8761Z" fill="white"/>
<path d="M55.1708 46.0804L53.5353 44.5479L52.0154 46.2016L53.6509 47.7341L55.1708 46.0804Z" fill="white"/>
<path d="M63.1958 44.1679L61.5603 42.631L60.0403 44.2848L61.6759 45.8173L63.1958 44.1679Z" fill="white"/>
<path d="M58.2786 44.2484L56.6388 42.7115L55.1188 44.3653L56.7586 45.8978L58.2786 44.2484Z" fill="white"/>
<path d="M60.3607 42.341L59.209 41.2631L58.1429 42.4233L59.2946 43.5056L60.3607 42.341Z" fill="white"/>
<path d="M56.0691 41.5471L54.9174 40.4691L53.8513 41.6337L55.003 42.7116L56.0691 41.5471Z" fill="white"/>
<path d="M46.1704 46.8704L42.665 47.5806L43.3665 51.1207L46.8719 50.4105L46.1704 46.8704Z" fill="white"/>
<path d="M50.8771 46.0029L48.0645 46.5728L48.6272 49.4125L51.4399 48.8427L50.8771 46.0029Z" fill="white"/>
<path d="M45.3546 42.1302L42.542 42.7006L43.1052 45.5402L45.9178 44.9699L45.3546 42.1302Z" fill="white"/>
<path d="M49.3723 42.2731L47.1809 42.717L47.6191 44.9286L49.8105 44.4846L49.3723 42.2731Z" fill="white"/>
<path d="M52.646 41.311L50.4547 41.755L50.8929 43.9665L53.0843 43.5226L52.646 41.311Z" fill="white"/>
<path d="M48.608 38.4814L46.4166 38.9254L46.8549 41.1369L49.0462 40.6929L48.608 38.4814Z" fill="white"/>
<path d="M51.5354 38.8183L49.9947 39.1302L50.3023 40.6838L51.843 40.372L51.5354 38.8183Z" fill="white"/>
<path d="M48.5079 35.6556L46.9673 35.968L47.2754 37.5215L48.816 37.2091L48.5079 35.6556Z" fill="white"/>
<path d="M36.2252 38.9548L37.7066 35.6733L34.4527 34.1754L32.967 37.4612L36.2252 38.9548Z" fill="white"/>
<path d="M40.8335 40.387L42.0237 37.7506L39.412 36.5514L38.2217 39.1835L40.8335 40.387Z" fill="white"/>
<path d="M38.6062 33.9797L39.7964 31.3476L37.1847 30.1441L35.9944 32.7806L38.6062 33.9797Z" fill="white"/>
<path d="M40.929 32.9006L40.0032 34.9526L42.0366 35.8905L42.9624 33.8384L40.929 32.9006Z" fill="white"/>
<path d="M44.753 41.0145L45.6778 38.9624L43.6441 38.0273L42.7193 40.0794L44.753 41.0145Z" fill="white"/>
<path d="M39.8065 26.969L38.8808 29.0211L40.9142 29.9589L41.8399 27.9068L39.8065 26.969Z" fill="white"/>
<path d="M44.1411 34.0511L43.2154 36.1032L45.2488 37.0411L46.1745 34.989L44.1411 34.0511Z" fill="white"/>
<path d="M42.5124 29.369L41.5859 31.4208L43.619 32.3593L44.5455 30.3076L42.5124 29.369Z" fill="white"/>
<path d="M46.0687 33.7553L46.7195 32.3094L45.2895 31.6514L44.6387 33.0973L46.0687 33.7553Z" fill="white"/>
<path d="M45.461 29.3958L46.1118 27.9499L44.6818 27.2962L44.0267 28.7378L45.461 29.3958Z" fill="white"/>
<path d="M34.2253 23.3787L37.3337 21.5951L35.5611 18.4564L32.4528 20.2444L34.2253 23.3787Z" fill="white"/>
<path d="M37.1372 27.2615L39.629 25.8243L38.2075 23.309L35.7157 24.7463L37.1372 27.2615Z" fill="white"/>
<path d="M39.0419 20.7512L41.5381 19.3182L40.1123 16.803L37.6205 18.2359L39.0419 20.7512Z" fill="white"/>
<path d="M40.7212 24.3219L42.6607 23.2007L41.5518 21.2439L39.6123 22.3608L40.7212 24.3219Z" fill="white"/>
<path d="M43.2489 18.8543L45.1884 17.7374L44.0795 15.7806L42.14 16.8975L43.2489 18.8543Z" fill="white"/>
<path d="M42.6506 27.157L44.5944 26.0401L43.4855 24.079L41.546 25.1959L42.6506 27.157Z" fill="white"/>
<path d="M44.0485 22.3952L45.9881 21.2783L44.8834 19.3215L42.9439 20.4385L44.0485 22.3952Z" fill="white"/>
<path d="M45.226 24.9759L46.5918 24.188L45.8126 22.8113L44.4468 23.5949L45.226 24.9759Z" fill="white"/>
<path d="M47.2576 21.0802L48.6234 20.2966L47.8441 18.9156L46.4783 19.7036L47.2576 21.0802Z" fill="white"/>
<path d="M42.0196 5.98092L41.6401 9.57098L45.1949 9.95511L45.5744 6.36504L42.0196 5.98092Z" fill="white"/>
<path d="M42.0574 11.5547L41.7525 14.4344L44.6048 14.7432L44.9097 11.8634L42.0574 11.5547Z" fill="white"/>
<path d="M47.3771 7.40267L47.0723 10.2824L49.9246 10.5911L50.2294 7.71139L47.3771 7.40267Z" fill="white"/>
<path d="M46.5962 11.9209L46.3588 14.1636L48.581 14.4041L48.8184 12.1614L46.5962 11.9209Z" fill="white"/>
<path d="M51.8103 8.97795L51.5736 11.2207L53.7959 11.4604L54.0326 9.21769L51.8103 8.97795Z" fill="white"/>
<path d="M46.5167 15.3616L46.2792 17.6042L48.5015 17.8448L48.7389 15.6021L46.5167 15.3616Z" fill="white"/>
<path d="M50.4131 12.3234L50.1757 14.566L52.398 14.8066L52.6354 12.5639L50.4131 12.3234Z" fill="white"/>
<path d="M49.803 15.7837L49.6362 17.3591L51.1986 17.5282L51.3654 15.9528L49.803 15.7837Z" fill="white"/>
<path d="M53.7056 13.8227L53.5399 15.3983L55.1024 15.5663L55.2681 13.9907L53.7056 13.8227Z" fill="white"/>
<path d="M70.419 30.4427C70.1535 30.2912 69.6697 30.0358 69.0018 29.8236C68.0385 29.5119 66.6941 29.2782 65.1013 29.5336C64.5662 29.6202 64.001 29.763 63.4144 29.9752C63.3588 29.9968 63.3031 30.0141 63.2475 30.0358C62.9478 30.1483 62.6523 30.2869 62.3526 30.4384C62.1 30.5682 61.8431 30.7111 61.5905 30.867C61.0125 31.2176 60.4431 31.6159 59.8908 32.0488C59.2614 28.2002 59.5697 24.6287 59.7152 22.8754C59.7152 22.8667 59.7281 22.8624 59.7366 22.8667C61.0853 23.7239 60.7085 26.1179 60.4217 26.8062C60.4174 26.8192 60.4345 26.8279 60.4474 26.8192C62.1257 24.8148 61.3079 22.5983 60.9611 22.0398C60.9526 22.0268 60.9697 22.0139 60.9826 22.0225C61.2266 22.2217 61.4235 22.4338 61.5905 22.6502C62.1086 23.3213 62.3013 24.0442 62.3526 24.6849C62.3783 25.0226 62.3698 25.3343 62.3526 25.6027C62.3483 25.6763 62.3441 25.7412 62.3355 25.8062C62.3355 25.8148 62.3441 25.8192 62.3526 25.8148H62.3612C62.815 24.9144 63.0334 23.555 62.3526 22.2346C62.1685 21.8753 61.9202 21.5203 61.5905 21.1783C61.4963 21.0788 61.3936 20.9835 61.2865 20.8839C61.278 20.8753 61.2865 20.858 61.2994 20.8623C61.4021 20.8883 61.4963 20.9186 61.5905 20.9489C61.8774 21.0485 62.13 21.187 62.3526 21.3558C62.8621 21.7368 63.2089 22.2563 63.4144 22.8018C63.5857 23.252 63.6628 23.7152 63.6628 24.1265C63.6628 24.1438 63.6842 24.1438 63.6885 24.1265C64.0053 22.9533 63.8126 22.0658 63.4144 21.4208C63.1319 20.9575 62.7422 20.6199 62.3526 20.3818C62.0872 20.2216 61.8217 20.109 61.5905 20.0398C61.4535 19.9965 61.3336 19.9705 61.2266 19.9575C61.2095 19.9575 61.2138 19.9315 61.2266 19.9315C61.3508 19.9185 61.4706 19.9142 61.5862 19.9099C61.8688 19.9056 62.1214 19.9315 62.3484 19.9705C62.7979 20.0571 63.149 20.2129 63.4102 20.3948C63.8383 20.6848 64.0524 21.0268 64.1252 21.1653C64.1337 21.1783 64.1509 21.1697 64.1509 21.1567C64.0909 20.5376 63.8083 20.0527 63.4144 19.7064C63.1105 19.438 62.738 19.2519 62.3526 19.1393C62.1 19.07 61.8431 19.0311 61.5905 19.0267C61.248 19.0267 60.9183 19.0787 60.64 19.1999C60.6272 19.2042 60.6186 19.1913 60.6229 19.1783C60.8712 18.8189 61.2223 18.6025 61.5905 18.4856C61.8474 18.4077 62.1086 18.3774 62.3526 18.3947C62.5881 18.4077 62.8022 18.4596 62.9777 18.5419C62.9906 18.5462 62.9991 18.5332 62.9906 18.5202C62.7979 18.2994 62.5795 18.1263 62.3526 17.9964C62.1086 17.8579 61.8517 17.7756 61.5905 17.7453C60.9098 17.6674 60.2162 17.9618 59.7538 18.6674C59.7495 18.6761 59.7366 18.6761 59.7324 18.6674C59.6424 18.5072 59.5568 18.3298 59.4797 18.1436C59.2956 17.7107 59.1458 17.2258 59.0644 16.741C59.0644 16.7236 59.043 16.7236 59.043 16.741C58.9617 17.2258 58.8076 17.715 58.6234 18.1479C58.5421 18.3341 58.4608 18.5072 58.3708 18.6631C58.3666 18.6718 58.3537 18.6718 58.3494 18.6631C57.5445 17.4293 56.0331 17.4553 55.1126 18.5202C55.1041 18.5289 55.1126 18.5462 55.1255 18.5419C55.7377 18.2475 56.898 18.3341 57.4803 19.1783C57.4889 19.1913 57.4803 19.2042 57.4632 19.1999C56.5683 18.8189 55.1811 19.0657 54.4404 19.9575C54.175 20.2735 53.9952 20.6761 53.9481 21.1567C53.9481 21.1697 53.9652 21.1783 53.9737 21.1653C54.0294 21.0571 54.175 20.8233 54.4404 20.5852C54.8729 20.1999 55.6264 19.8103 56.8723 19.9272C56.8894 19.9272 56.8894 19.9532 56.8723 19.9532C56.2344 20.0311 54.92 20.6069 54.4361 21.9229C54.2221 22.503 54.1664 23.2303 54.4062 24.1221C54.4062 24.1351 54.4319 24.1351 54.4319 24.1221C54.4319 24.1005 54.4319 24.0832 54.4319 24.0615C54.4447 22.8667 55.1212 21.2649 56.7953 20.858C56.8081 20.858 56.8167 20.871 56.8081 20.8796C54.9371 22.542 55.1212 24.594 55.7334 25.8062C55.742 25.8192 55.7591 25.8148 55.7591 25.7975C55.6778 24.8797 55.6136 23.2477 57.1121 22.0139C57.1249 22.0052 57.1421 22.0139 57.1335 22.0312C56.7867 22.594 55.9689 24.8062 57.6473 26.8105C57.6558 26.8235 57.6772 26.8105 57.673 26.7976C57.3904 26.1136 57.0136 23.7152 58.358 22.858C58.3666 22.8537 58.3794 22.858 58.3794 22.8667C58.525 24.62 58.8332 28.1915 58.2039 32.0402C57.1206 31.2003 55.9775 30.4643 54.8472 30.0314C54.7059 29.9795 54.5689 29.9319 54.4361 29.8842C53.2673 29.4946 52.1969 29.3864 51.2636 29.4297C49.765 29.4946 48.6176 29.9492 47.9882 30.2652C47.8598 30.3301 47.7527 30.3908 47.6714 30.4384C47.6371 30.46 47.6628 30.5076 47.6971 30.4947C47.7955 30.4643 47.8897 30.434 47.9882 30.4081C49.1399 30.0791 50.2317 29.9925 51.2636 30.0834C52.3896 30.183 53.4471 30.4946 54.4361 30.9449C55.8234 31.5769 57.0778 32.4774 58.2124 33.4298C56.6111 34.8411 55.2582 36.2135 54.4361 36.694C54.3933 36.7156 54.3548 36.7416 54.3163 36.7633C54.1193 36.4905 53.7768 36.3347 53.4043 36.4169C53.0789 36.4905 52.8135 36.7546 52.7407 37.0793C52.6765 37.3693 52.7492 37.6854 52.9119 37.8499C53.3486 38.2914 53.8539 38.3217 54.4361 38.075C55.5451 37.6031 56.9237 36.1225 58.6149 34.5554C58.7562 34.4255 58.8975 34.2913 59.043 34.1614C59.1886 34.2913 59.3299 34.4212 59.4712 34.5511C60.2376 35.261 60.9397 35.9537 61.582 36.5425C61.8474 36.7849 62.1 37.01 62.3441 37.2092C62.7208 37.5209 63.0762 37.7763 63.4059 37.9538C64.0524 38.3001 64.6133 38.3434 65.0928 37.9148C65.1185 37.8932 65.1442 37.8715 65.1699 37.8455C65.2812 37.733 65.4096 37.365 65.3411 37.075C65.3026 36.9061 65.2127 36.7546 65.0885 36.6377C64.9772 36.5295 64.8316 36.4472 64.6775 36.4126C64.305 36.3303 63.9625 36.4862 63.7655 36.7589C63.6542 36.7026 63.5343 36.6247 63.4016 36.5338C63.0976 36.3217 62.7422 36.023 62.3398 35.668C62.1 35.4559 61.8474 35.2221 61.5777 34.9753C61.0553 34.4948 60.4816 33.9666 59.8736 33.4255C60.4131 32.9709 60.9826 32.5293 61.5777 32.1224C61.826 31.9536 62.0786 31.7891 62.3398 31.6332C62.6866 31.4254 63.0377 31.2349 63.4016 31.0574C63.9453 30.7934 64.5062 30.5726 65.0885 30.4037C66.2959 30.0531 67.5932 29.9362 68.9889 30.1613C69.4428 30.2349 69.9052 30.3431 70.3804 30.4903C70.419 30.5033 70.4404 30.4514 70.4104 30.434" fill="white"/>
</svg>
