<svg width="28" height="29" viewBox="0 0 28 29" fill="none" xmlns="http://www.w3.org/2000/svg">
<path fill-rule="evenodd" clip-rule="evenodd" d="M24.7442 11.7205H2.74936V7.54984C2.74936 6.81183 3.34735 6.21296 4.08418 6.21296H5.49872V8.96672H8.24808V6.21296H19.2455V8.96672H21.9949V6.21296H23.3696C24.1284 6.21296 24.7442 6.82981 24.7442 7.58984V11.7205ZM24.7442 24.1124C24.7442 24.8697 24.1256 25.4893 23.3696 25.4893H4.12404C3.36522 25.4893 2.74936 24.8724 2.74936 24.1124V14.4742H24.7442V24.1124ZM0.0879793 25.1602C0.0879793 26.6803 1.4063 28.243 2.92395 28.243H24.9188C26.4379 28.243 27.5376 26.8372 27.5376 25.1602C27.5376 24.6246 27.4936 8.08553 27.4936 7.18781C27.4936 4.32114 27.1073 3.4592 21.9949 3.4592V0.705444H19.2455V3.4592H8.24808V0.705444H5.49872V3.4592H2.74936C1.23721 3.4592 0 4.6984 0 6.21296L0.0879793 25.1602Z" fill="white"/>
</svg>
