<svg width="20" height="27" viewBox="0 0 20 27" fill="none" xmlns="http://www.w3.org/2000/svg">
<path d="M10.25 0.0847168C4.86556 0.0847168 0.5 4.45028 0.5 9.83472C0.5 11.9549 1.19509 13.9005 2.35047 15.4938C2.37119 15.532 2.37444 15.5746 2.398 15.6112L8.898 25.3612C9.19944 25.8133 9.70725 26.0847 10.25 26.0847C10.7927 26.0847 11.3006 25.8133 11.602 25.3612L18.102 15.6112C18.126 15.5746 18.1288 15.532 18.1495 15.4938C19.3049 13.9005 20 11.9549 20 9.83472C20 4.45028 15.6344 0.0847168 10.25 0.0847168ZM10.25 13.0847C8.45519 13.0847 7 11.6295 7 9.83472C7 8.0399 8.45519 6.58472 10.25 6.58472C12.0448 6.58472 13.5 8.0399 13.5 9.83472C13.5 11.6295 12.0448 13.0847 10.25 13.0847Z" fill="#1F325E"/>
</svg>
