<svg xmlns="http://www.w3.org/2000/svg" xmlns:xlink="http://www.w3.org/1999/xlink" viewBox="0,0,256,256" width="50px" height="50px" fill-rule="nonzero"><g fill="#ffffff" fill-rule="nonzero" stroke="none" stroke-width="1" stroke-linecap="butt" stroke-linejoin="miter" stroke-miterlimit="10" stroke-dasharray="" stroke-dashoffset="0" font-family="none" font-weight="none" font-size="none" text-anchor="none" style="mix-blend-mode: normal"><g transform="translate(244.35699,-10.66886) rotate(85) scale(5.12,5.12)"><path d="M25,2c-12.73552,0 -23,10.26448 -23,23c0,12.73552 10.26448,23 23,23c12.73552,0 23,-10.26448 23,-23c0,-12.73552 -10.26448,-23 -23,-23zM25,4c11.66448,0 21,9.33552 21,21c0,11.66448 -9.33552,21 -21,21c-11.66448,0 -21,-9.33552 -21,-21c0,-11.66448 9.33552,-21 21,-21zM24.98438,6.98633c-0.55152,0.00862 -0.99193,0.46214 -0.98437,1.01367v14.17383c-1.18096,0.39893 -2,1.48174 -2,2.82617c0,0.47136 0.10836,0.9062 0.28906,1.29688l-5.99609,5.99609c-0.26124,0.25082 -0.36648,0.62327 -0.27512,0.97371c0.09136,0.35044 0.36503,0.62411 0.71547,0.71547c0.35044,0.09136 0.72289,-0.01388 0.97371,-0.27512l5.99609,-5.99609c0.39067,0.1807 0.82551,0.28906 1.29688,0.28906c1.7,0 3,-1.3 3,-3c0,-1.34443 -0.81904,-2.42724 -2,-2.82617v-14.17383c0.0037,-0.2703 -0.10218,-0.53059 -0.29351,-0.72155c-0.19133,-0.19097 -0.45182,-0.29634 -0.72212,-0.29212z"></path></g></g></svg>