<svg width="28" height="28" viewBox="0 0 28 28" fill="none" xmlns="http://www.w3.org/2000/svg">
<path fill-rule="evenodd" clip-rule="evenodd" d="M7.69192 0.900391H20.1056C24.0934 0.900391 27.3735 4.16538 27.3735 8.13474V20.4268C27.3735 24.3961 24.0934 27.6611 20.1056 27.6611H7.69192C3.70417 27.6611 0.424072 24.3961 0.424072 20.4268V8.13474C0.424072 4.16538 3.70417 0.900391 7.69192 0.900391V0.900391ZM21.1342 5.57413C21.9704 5.57413 22.6781 6.27851 22.6781 7.11087C22.6781 7.94323 21.9704 8.64761 21.1342 8.64761C20.2342 8.64761 19.5904 7.94323 19.5904 7.11087C19.5904 6.27851 20.2333 5.57413 21.1342 5.57413ZM13.8664 6.98289H13.9311C17.9189 6.98289 21.2638 10.3123 21.2638 14.2817C21.2638 18.3146 17.9189 21.5805 13.9311 21.5805H13.8664C9.87865 21.5805 6.59855 18.3155 6.59855 14.2817C6.59855 10.3123 9.87865 6.98289 13.8664 6.98289V6.98289ZM13.8664 9.47997H13.9311C16.5684 9.47997 18.7551 11.6566 18.7551 14.2817C18.7551 16.9703 16.5684 19.1469 13.9311 19.1469H13.8664C11.2292 19.1469 9.04243 16.9703 9.04243 14.2817C9.04243 11.6566 11.2292 9.47997 13.8664 9.47997V9.47997ZM7.75667 3.20597H20.0409C22.8067 3.20597 25.0572 5.44708 25.0572 8.1992V20.3633C25.0572 23.1163 22.8057 25.3565 20.0409 25.3565H7.75667C4.99087 25.3565 2.74032 23.1154 2.74032 20.3633V8.1992C2.74032 5.44615 4.99181 3.20597 7.75667 3.20597V3.20597Z" fill="white"/>
</svg>
