<svg width="54" height="54" viewBox="0 0 54 54" fill="none" xmlns="http://www.w3.org/2000/svg">
<path fill-rule="evenodd" clip-rule="evenodd" d="M20.6919 13.9004H33.1056C37.0934 13.9004 40.3735 17.1654 40.3735 21.1347V33.4268C40.3735 37.3962 37.0934 40.6611 33.1056 40.6611H20.6919C16.7042 40.6611 13.4241 37.3962 13.4241 33.4268V21.1347C13.4241 17.1654 16.7042 13.9004 20.6919 13.9004ZM34.1342 18.5741C34.9704 18.5741 35.6781 19.2785 35.6781 20.1109C35.6781 20.9432 34.9704 21.6476 34.1342 21.6476C33.2342 21.6476 32.5904 20.9432 32.5904 20.1109C32.5904 19.2785 33.2333 18.5741 34.1342 18.5741ZM26.8664 19.9829H26.9311C30.9189 19.9829 34.2638 23.3123 34.2638 27.2817C34.2638 31.3146 30.9189 34.5805 26.9311 34.5805H26.8664C22.8786 34.5805 19.5985 31.3155 19.5985 27.2817C19.5985 23.3123 22.8786 19.9829 26.8664 19.9829ZM26.8664 22.48H26.9311C29.5684 22.48 31.7551 24.6566 31.7551 27.2817C31.7551 29.9703 29.5684 32.1469 26.9311 32.1469H26.8664C24.2292 32.1469 22.0424 29.9703 22.0424 27.2817C22.0424 24.6566 24.2292 22.48 26.8664 22.48ZM20.7567 16.206H33.0409C35.8067 16.206 38.0572 18.4471 38.0572 21.1992V33.3633C38.0572 36.1163 35.8057 38.3565 33.0409 38.3565H20.7567C17.9909 38.3565 15.7403 36.1154 15.7403 33.3633V21.1992C15.7403 18.4461 17.9918 16.206 20.7567 16.206Z" fill="#1F325E"/>
</svg>
