<svg width="53" height="54" viewBox="0 0 53 54" fill="none" xmlns="http://www.w3.org/2000/svg">
<path fill-rule="evenodd" clip-rule="evenodd" d="M14.7878 23.3484H19.4991V39.314H14.7878V23.3484ZM17.1147 15.2479C18.6849 15.2479 19.9645 16.5393 19.9645 18.124C19.9645 19.7086 18.6849 21 17.1147 21C15.5446 21 14.3232 19.7086 14.3232 18.124C14.3232 16.5393 15.5446 15.2479 17.1147 15.2479ZM22.2914 23.3484H26.9445V25.5791C27.9335 24.1113 29.5619 23.1728 31.4227 23.1728H32.7023C35.6686 23.1728 38.053 25.6379 38.053 28.5728V39.314H33.3999V37.8461V30.6851C33.3417 28.8652 32.1203 27.457 30.3171 27.457C28.5138 27.457 27.0019 28.866 26.9436 30.6851V39.3132H22.2906V23.3484H22.2914Z" fill="#1F325E"/>
</svg>
