<svg width="25" height="25" viewBox="0 0 25 25" fill="none" xmlns="http://www.w3.org/2000/svg">
<path fill-rule="evenodd" clip-rule="evenodd" d="M0.787783 8.34837H5.4991V24.314H0.787783V8.34837ZM3.11473 0.247925C4.68489 0.247925 5.9645 1.53932 5.9645 3.12396C5.9645 4.70859 4.68489 5.99999 3.11473 5.99999C1.54457 5.99999 0.323242 4.70859 0.323242 3.12396C0.323242 1.53932 1.54457 0.247925 3.11473 0.247925ZM8.29143 8.34837H12.9445V10.5791C13.9335 9.11128 15.5619 8.17276 17.4227 8.17276H18.7023C21.6686 8.17276 24.053 10.6379 24.053 13.5728V24.314H19.3999V22.8461V15.6851C19.3417 13.8652 18.1203 12.457 16.317 12.457C14.5138 12.457 13.0019 13.866 12.9436 15.6851V24.3132H8.29059V8.34837H8.29143Z" fill="white"/>
</svg>
