<svg width="120" height="81" viewBox="0 0 120 81" fill="none" xmlns="http://www.w3.org/2000/svg">
<path d="M71.9207 1.70386H70.5742V3.04845H71.9207V1.70386Z" fill="white"/>
<path d="M99.909 18.4204H98.5625V19.765H99.909V18.4204Z" fill="white"/>
<path d="M114.923 16.9792C115.254 16.8215 115.521 16.5964 115.723 16.2972C115.926 16.0013 116.067 15.641 116.151 15.2228C116.234 14.8014 116.276 14.3286 116.276 13.8043V4.39209H114.93V13.8043C114.93 14.1838 114.91 14.5055 114.872 14.7693C114.833 15.033 114.766 15.2453 114.669 15.4094C114.573 15.5702 114.444 15.6893 114.284 15.7632C114.12 15.8372 113.911 15.8726 113.654 15.8726C113.532 15.8726 113.422 15.8662 113.336 15.8565C113.246 15.8469 113.124 15.8179 112.966 15.7729L112.613 17.066C112.982 17.169 113.348 17.2172 113.705 17.2172C114.187 17.2172 114.592 17.14 114.923 16.9824V16.9792Z" fill="white"/>
<path d="M110.294 2.01199H108.446V1.69997C108.446 1.52948 108.482 1.3976 108.555 1.30431C108.617 1.22711 108.761 1.18851 108.97 1.18851H109.896V0.252441H108.948C108.433 0.252441 108.032 0.387544 107.762 0.654533C107.489 0.921522 107.35 1.359 107.35 1.94766V3.04457H110.297V2.00878L110.294 2.01199Z" fill="white"/>
<path d="M97.2181 18.4204H95.8716V19.765H97.2181V18.4204Z" fill="white"/>
<path d="M74.6143 1.70386H73.2678V3.04845H74.6143V1.70386Z" fill="white"/>
<path d="M104.23 12.45C104.741 12.8135 105.332 13.0837 106.004 13.2574C106.675 13.4311 107.389 13.518 108.141 13.518H108.497L108.951 12.569V13.904C108.951 14.6084 108.748 15.1135 108.346 15.4158C107.941 15.7182 107.376 15.8694 106.646 15.8694C106.232 15.8694 105.859 15.8308 105.528 15.7504C105.197 15.6732 104.818 15.5381 104.394 15.3483L103.973 16.6414C104.487 16.8312 104.946 16.9759 105.345 17.0692C105.743 17.1657 106.145 17.2108 106.547 17.2108C107.858 17.2108 108.812 16.8987 109.407 16.2779C110.001 15.6539 110.297 14.8175 110.297 13.7656V4.39209H108.144C107.315 4.39209 106.556 4.51111 105.872 4.74593C105.187 4.98075 104.603 5.30243 104.114 5.71095C103.626 6.11948 103.246 6.60842 102.98 7.17456C102.71 7.74071 102.575 8.3551 102.575 9.01454C102.575 9.80907 102.723 10.491 103.021 11.0572C103.317 11.6233 103.722 12.0897 104.233 12.4532L104.23 12.45ZM104.23 7.68602C104.435 7.28393 104.712 6.93974 105.052 6.65345C105.393 6.36716 105.785 6.14843 106.222 5.99081C106.646 5.83962 107.087 5.76242 107.543 5.7592H109.719L108.951 6.14199V12.1798H107.588C107.083 12.1798 106.611 12.109 106.168 11.9675C105.724 11.8292 105.335 11.6233 104.998 11.3531C104.66 11.0829 104.397 10.7548 104.207 10.3623C104.018 9.96991 103.921 9.52278 103.921 9.01775C103.921 8.51272 104.024 8.09455 104.233 7.68924L104.23 7.68602Z" fill="white"/>
<path d="M70.9435 17.0274H73.7393V16.0206C73.765 16.0688 73.794 16.1171 73.8229 16.1589C74.0253 16.4548 74.2921 16.6832 74.6231 16.8408C74.9541 16.9985 75.359 17.0757 75.841 17.0757H100.377V4.39209H99.0305V15.7343H75.8892C75.6321 15.7343 75.4201 15.6989 75.2594 15.6249C75.0987 15.5509 74.9669 15.4351 74.8737 15.2711C74.7805 15.107 74.7131 14.8947 74.6713 14.631C74.6327 14.3672 74.6134 14.0455 74.6134 13.6659V4.39209H70.9756C67.2543 4.39209 64.7219 7.34183 64.7219 10.7098V10.7451C64.7219 14.1131 67.2189 17.0274 70.9403 17.0274H70.9435ZM66.1584 10.6744C66.1584 7.89833 68.1509 5.66592 70.9435 5.66592H74.0928L73.2669 6.07766V13.6659C73.2669 14.1935 73.3087 14.6663 73.3923 15.0845C73.4405 15.329 73.5112 15.5509 73.6011 15.7536H70.9756C68.1798 15.7536 66.1552 13.4826 66.1552 10.7098V10.6744H66.1584Z" fill="white"/>
<path d="M57.9928 13.6891L58.5777 15.2396L50.0327 4.37988H48.6958V17.0023H50.0841V7.48725L49.2935 5.64728L58.2434 17.0023H59.3811V4.37988H57.9928V13.6891Z" fill="white"/>
<path d="M77.16 37.1734L84.9176 29.7717V24.6925H64.1834V30.473H74.814L78.7571 27.9382L68.9138 37.8296L69.9679 42.1208H72.7734C76.5429 42.1208 78.7796 43.5233 78.7796 46.0194V46.1063C78.7796 48.3837 76.9832 49.8281 74.4412 49.8281C71.3305 49.8281 69.1388 48.5156 67.0339 46.1481L62.387 50.5711C65.0157 53.6817 68.8303 55.8691 74.3545 55.8691C81.193 55.8691 85.3997 51.6198 85.3997 45.8393V45.7525C85.3997 40.0588 81.3216 37.8715 77.16 37.1702V37.1734Z" fill="white"/>
<path d="M39.9369 4.16113C36.0935 4.16113 33.4744 7.20738 33.4744 10.6911V10.7265C33.4744 14.207 36.0549 17.2179 39.9016 17.2179C43.7483 17.2179 46.3642 14.1716 46.3642 10.6911V10.6557C46.3642 7.17521 43.7836 4.16435 39.9369 4.16435V4.16113ZM44.8827 10.7265C44.8827 13.5926 42.826 15.9022 39.9369 15.9022C37.0479 15.9022 34.9558 13.5572 34.9558 10.6911V10.6557C34.9558 7.78961 37.0158 5.47999 39.9016 5.47999C42.7874 5.47999 44.8827 7.82499 44.8827 10.6911V10.7265Z" fill="white"/>
<path d="M103.489 24.1652C94.022 24.1652 87.1384 31.3031 87.1384 40.0172V40.1041C87.1384 48.8182 93.932 55.8693 103.399 55.8693C112.867 55.8693 119.75 48.7314 119.75 40.0172V39.9304C119.75 31.2162 112.957 24.1652 103.489 24.1652ZM112.696 40.1041C112.696 45.3602 108.927 49.6513 103.489 49.6513C98.0519 49.6513 94.1955 45.2734 94.1955 40.0172V39.9304C94.1955 34.6742 97.9651 30.3831 103.399 30.3831C108.834 30.3831 112.693 34.7611 112.693 40.0172V40.1041H112.696Z" fill="white"/>
<path d="M31.0142 4.37988H29.5874V17.0023H31.0142V4.37988Z" fill="white"/>
<path d="M6.6784 51.8461L7.97991 50.8425L14.6867 45.67C20.1209 41.4657 22.7529 38.9277 22.7529 33.8035V33.7166C22.7529 27.978 18.5463 24.2562 12.1897 24.2562C6.71053 24.2562 3.77329 26.4886 0.749278 30.6061L5.48293 34.4147C7.76139 31.6129 9.38426 30.3005 11.7527 30.3005C14.1211 30.3005 15.8726 31.703 15.8726 34.286C15.8726 36.869 14.3814 38.4903 10.5701 41.6427L0.354004 50.0062V55.3492H23.0614V49.5237H11.3606L6.6784 51.8461Z" fill="white"/>
<path d="M6.77115 17.0924L12.2054 4.37988H10.6693L6.37587 14.7281L6.51406 16.1145L6.15735 15.2524L2.4392 6.25845L1.6615 4.37988H0.0739746L5.5082 17.0924H6.77115Z" fill="white"/>
<path d="M15.5699 4.37988H14.1431V17.0023H15.5699V4.37988Z" fill="white"/>
<path d="M23.1184 10.0062C20.3386 9.41114 19.6894 8.74527 19.6894 7.55508V7.5197C19.6894 6.38419 20.7371 5.48351 22.3792 5.48351C23.6775 5.48351 24.8537 5.89847 26.0267 6.85384L26.8558 5.75371C25.5736 4.72436 24.256 4.20325 22.4146 4.20325C20.014 4.20325 18.2626 5.66364 18.2626 7.64837V7.68375C18.2626 9.75855 19.5995 10.6946 22.5046 11.3283C25.159 11.888 25.7889 12.5539 25.7889 13.728V13.7634C25.7889 15.0083 24.6705 15.9089 22.9738 15.9089C21.277 15.9089 19.9594 15.3138 18.6418 14.1237L17.7581 15.1691C19.2749 16.5233 20.917 17.1892 22.9191 17.1892C25.429 17.1892 27.2318 15.7835 27.2318 13.6186V13.5832C27.2318 11.6532 25.9335 10.6271 23.1152 10.0127L23.1184 10.0062Z" fill="white"/>
<path d="M41.402 22.1523L42.9542 23.6417L41.4631 25.1922L39.9109 23.7028L41.402 22.1523Z" fill="white"/>
<path d="M44.9558 23.7028L46.5112 25.1922L48.0023 23.6417L46.4469 22.1523L44.9558 23.7028Z" fill="white"/>
<path d="M42.7676 25.6582L43.9791 26.8194L45.1392 25.6099L43.9309 24.4519L42.7676 25.6582Z" fill="white"/>
<path d="M47.2063 26.3246L48.4146 27.4826L49.5779 26.2764L48.3664 25.1151L47.2063 26.3246Z" fill="white"/>
<path d="M40.7917 27.5084L42.0001 28.6697L43.1602 27.4602L41.9519 26.299L40.7917 27.5084Z" fill="white"/>
<path d="M44.8499 27.6497L46.0582 28.8077L47.2215 27.6014L46.01 26.4402L44.8499 27.6497Z" fill="white"/>
<path d="M43.2622 29.0391L44.1138 29.8561L44.9301 29.0037L44.0785 28.1866L43.2622 29.0391Z" fill="white"/>
<path d="M46.4724 29.6802L47.324 30.4972L48.1403 29.6448L47.2887 28.8309L46.4724 29.6802Z" fill="white"/>
<path d="M56.1247 22.7253L53.4854 23.2097L53.9687 25.8485L56.6081 25.3641L56.1247 22.7253Z" fill="white"/>
<path d="M52.1591 23.9237L50.0413 24.312L50.4286 26.4288L52.5465 26.0405L52.1591 23.9237Z" fill="white"/>
<path d="M56.2526 26.8806L54.1348 27.2693L54.5225 29.386L56.6403 28.9973L56.2526 26.8806Z" fill="white"/>
<path d="M52.8629 27.2766L51.2129 27.5791L51.5146 29.2276L53.1646 28.9251L52.8629 27.2766Z" fill="white"/>
<path d="M56.0705 30.4064L54.4204 30.709L54.7221 32.3575L56.3721 32.0549L56.0705 30.4064Z" fill="white"/>
<path d="M50.3922 27.9453L48.7422 28.2478L49.0439 29.8963L50.6939 29.5938L50.3922 27.9453Z" fill="white"/>
<path d="M53.3822 30.1048L51.7322 30.4073L52.0338 32.0558L53.6839 31.7533L53.3822 30.1048Z" fill="white"/>
<path d="M50.7936 30.3873L49.6335 30.6002L49.8457 31.7582L51.0057 31.5453L50.7936 30.3873Z" fill="white"/>
<path d="M53.0227 32.7867L51.8625 32.999L52.0741 34.1572L53.2342 33.9449L53.0227 32.7867Z" fill="white"/>
<path d="M61.3363 31.8534L60.1826 34.2756L62.6089 35.4272L63.7594 33.005L61.3363 31.8534Z" fill="white"/>
<path d="M57.895 30.7349L56.9727 32.6778L58.9169 33.601L59.8424 31.6581L57.895 30.7349Z" fill="white"/>
<path d="M59.4883 35.5201L58.5627 37.463L60.507 38.3863L61.4325 36.4433L59.4883 35.5201Z" fill="white"/>
<path d="M56.9396 34.0647L56.2197 35.5766L57.7333 36.2971L58.4532 34.782L56.9396 34.0647Z" fill="white"/>
<path d="M57.7086 38.4774L56.9888 39.9893L58.5024 40.7098L59.2222 39.198L57.7086 38.4774Z" fill="white"/>
<path d="M54.5421 33.1635L53.8223 34.6753L55.3359 35.3959L56.0557 33.8808L54.5421 33.1635Z" fill="white"/>
<path d="M55.7054 36.6631L54.9856 38.1749L56.4992 38.8955L57.2191 37.3804L55.7054 36.6631Z" fill="white"/>
<path d="M53.8837 35.5948L53.3792 36.6596L54.4429 37.1646L54.9506 36.1031L53.8837 35.5948Z" fill="white"/>
<path d="M54.2896 38.8415L53.7842 39.9045L54.8491 40.4118L55.3546 39.3488L54.2896 38.8415Z" fill="white"/>
<path d="M62.6444 43.4503L60.2888 44.7402L61.5807 47.0917L63.9331 45.8018L62.6444 43.4503Z" fill="white"/>
<path d="M60.5063 40.5325L58.6199 41.565L59.6547 43.4533L61.5443 42.4175L60.5063 40.5325Z" fill="white"/>
<path d="M58.9953 45.3422L57.1057 46.378L58.1437 48.263L60.0301 47.2304L58.9953 45.3422Z" fill="white"/>
<path d="M57.7806 42.6715L56.312 43.4757L57.1186 44.9457L58.5873 44.1383L57.7806 42.6715Z" fill="white"/>
<path d="M55.8214 46.6985L54.3496 47.5059L55.1562 48.9727L56.6281 48.1685L55.8214 46.6985Z" fill="white"/>
<path d="M56.3678 40.5391L54.896 41.3465L55.7026 42.8133L57.1744 42.0091L56.3678 40.5391Z" fill="white"/>
<path d="M55.2582 44.0577L53.7896 44.8651L54.5962 46.332L56.0648 45.5278L55.2582 44.0577Z" fill="white"/>
<path d="M54.4059 42.1279L53.3711 42.6973L53.9399 43.7299L54.9747 43.1637L54.4059 42.1279Z" fill="white"/>
<path d="M52.8348 44.9968L51.8 45.563L52.3656 46.5955L53.4004 46.0294L52.8348 44.9968Z" fill="white"/>
<path d="M54.2518 53.2925L53.9229 55.955L56.5859 56.2846L56.9149 53.6221L54.2518 53.2925Z" fill="white"/>
<path d="M54.7469 49.7326L54.4827 51.8683L56.6195 52.1332L56.8837 49.9975L54.7469 49.7326Z" fill="white"/>
<path d="M50.7025 52.7538L50.4382 54.8895L52.575 55.1544L52.8393 53.0187L50.7025 52.7538Z" fill="white"/>
<path d="M51.7663 49.9442L51.5608 51.6074L53.2256 51.8135L53.4311 50.1503L51.7663 49.9442Z" fill="white"/>
<path d="M47.8115 52.0656L47.606 53.7289L49.2708 53.935L49.4763 52.2717L47.8115 52.0656Z" fill="white"/>
<path d="M51.8562 47.3782L51.6504 49.0414L53.3152 49.2478L53.521 47.5845L51.8562 47.3782Z" fill="white"/>
<path d="M48.8989 49.5867L48.6931 51.2499L50.3579 51.4563L50.5637 49.793L48.8989 49.5867Z" fill="white"/>
<path d="M49.8323 47.5876L49.688 48.756L50.8585 48.9009L51.0028 47.7325L49.8323 47.5876Z" fill="white"/>
<path d="M46.8778 48.9956L46.7334 50.1641L47.9039 50.309L48.0482 49.1405L46.8778 48.9956Z" fill="white"/>
<path d="M46.307 58.5133L44.3402 56.6862L42.5149 58.6548L44.4816 60.4787L46.307 58.5133Z" fill="white"/>
<path d="M45.9427 20.9488L43.976 19.1217L42.1506 21.0871L44.1174 22.9142L45.9427 20.9488Z" fill="white"/>
<path d="M48.4041 55.5676L46.8262 54.104L45.3608 55.6834L46.9419 57.1438L48.4041 55.5676Z" fill="white"/>
<path d="M43.3592 55.6518L41.7813 54.1882L40.3159 55.7676L41.8938 57.228L43.3592 55.6518Z" fill="white"/>
<path d="M45.5113 53.6594L44.2837 52.5206L43.1428 53.7462L44.3704 54.8849L45.5113 53.6594Z" fill="white"/>
<path d="M41.0672 53.0682L39.8396 51.9294L38.6987 53.1582L39.9263 54.297L41.0672 53.0682Z" fill="white"/>
<path d="M47.0906 51.6471L45.863 50.5051L44.7222 51.7339L45.9498 52.8726L47.0906 51.6471Z" fill="white"/>
<path d="M43.3997 51.7069L42.1689 50.5649L41.0281 51.7937L42.2589 52.9325L43.3997 51.7069Z" fill="white"/>
<path d="M44.9625 50.2896L44.098 49.4886L43.2979 50.3507L44.1623 51.1549L44.9625 50.2896Z" fill="white"/>
<path d="M41.7413 49.6996L40.8768 48.8987L40.0767 49.764L40.9411 50.565L41.7413 49.6996Z" fill="white"/>
<path d="M34.3115 53.6552L31.6804 54.1829L32.207 56.8133L34.838 56.2856L34.3115 53.6552Z" fill="white"/>
<path d="M37.8443 53.0105L35.7332 53.434L36.1555 55.544L38.2667 55.1206L37.8443 53.0105Z" fill="white"/>
<path d="M33.6992 50.133L31.5881 50.5568L32.0109 52.6667L34.122 52.243L33.6992 50.133Z" fill="white"/>
<path d="M36.7146 50.2391L35.0698 50.569L35.3988 52.2122L37.0436 51.8823L36.7146 50.2391Z" fill="white"/>
<path d="M39.1719 49.5242L37.5271 49.8541L37.856 51.4974L39.5008 51.1675L39.1719 49.5242Z" fill="white"/>
<path d="M36.1412 47.4218L34.4963 47.7517L34.8253 49.395L36.4701 49.0651L36.1412 47.4218Z" fill="white"/>
<path d="M38.3383 47.6721L37.1819 47.9038L37.4128 49.0582L38.5692 48.8265L38.3383 47.6721Z" fill="white"/>
<path d="M36.066 45.3221L34.9097 45.5542L35.1409 46.7085L36.2973 46.4764L36.066 45.3221Z" fill="white"/>
<path d="M26.8467 47.7734L27.9586 45.3352L25.5162 44.2222L24.4011 46.6637L26.8467 47.7734Z" fill="white"/>
<path d="M30.3058 48.8377L31.1991 46.8787L29.2388 45.9877L28.3455 47.9434L30.3058 48.8377Z" fill="white"/>
<path d="M28.6339 44.0768L29.5273 42.1211L27.567 41.2268L26.6736 43.1858L28.6339 44.0768Z" fill="white"/>
<path d="M30.3775 43.275L29.6826 44.7998L31.2088 45.4967L31.9037 43.9719L30.3775 43.275Z" fill="white"/>
<path d="M33.2477 49.3039L33.9418 47.7792L32.4153 47.0844L31.7212 48.6091L33.2477 49.3039Z" fill="white"/>
<path d="M29.5349 38.8676L28.8401 40.3923L30.3663 41.0892L31.0612 39.5644L29.5349 38.8676Z" fill="white"/>
<path d="M32.7884 44.1299L32.0935 45.6547L33.6197 46.3515L34.3146 44.8267L32.7884 44.1299Z" fill="white"/>
<path d="M31.5657 40.6509L30.8704 42.1754L32.3963 42.8728L33.0917 41.3483L31.5657 40.6509Z" fill="white"/>
<path d="M34.2352 43.9101L34.7237 42.8357L33.6503 42.3468L33.1619 43.4212L34.2352 43.9101Z" fill="white"/>
<path d="M33.779 40.6708L34.2674 39.5964L33.1941 39.1107L32.7024 40.1819L33.779 40.6708Z" fill="white"/>
<path d="M25.3458 36.1999L27.6789 34.8746L26.3485 32.5425L24.0154 33.871L25.3458 36.1999Z" fill="white"/>
<path d="M27.5313 39.085L29.4016 38.017L28.3347 36.1481L26.4644 37.216L27.5313 39.085Z" fill="white"/>
<path d="M28.961 34.2475L30.8345 33.1828L29.7644 31.3138L27.894 32.3786L28.961 34.2475Z" fill="white"/>
<path d="M30.2215 36.9006L31.6773 36.0675L30.8449 34.6135L29.3892 35.4434L30.2215 36.9006Z" fill="white"/>
<path d="M32.1187 32.8381L33.5745 32.0082L32.7421 30.5542L31.2864 31.3841L32.1187 32.8381Z" fill="white"/>
<path d="M31.6697 39.0073L33.1287 38.1774L32.2963 36.7202L30.8406 37.5501L31.6697 39.0073Z" fill="white"/>
<path d="M32.7188 35.4691L34.1745 34.6391L33.3454 33.1852L31.8896 34.0151L32.7188 35.4691Z" fill="white"/>
<path d="M33.6027 37.3867L34.6278 36.8012L34.043 35.7783L33.0178 36.3605L33.6027 37.3867Z" fill="white"/>
<path d="M35.1274 34.4919L36.1525 33.9097L35.5676 32.8835L34.5425 33.469L35.1274 34.4919Z" fill="white"/>
<path d="M31.1959 23.2725L30.9111 25.9401L33.5793 26.2255L33.8641 23.5579L31.1959 23.2725Z" fill="white"/>
<path d="M31.2244 27.4142L30.9956 29.554L33.1365 29.7834L33.3653 27.6436L31.2244 27.4142Z" fill="white"/>
<path d="M35.2171 24.329L34.9883 26.4688L37.1292 26.6981L37.358 24.5584L35.2171 24.329Z" fill="white"/>
<path d="M34.6311 27.6863L34.4529 29.3527L36.1209 29.5314L36.2991 27.865L34.6311 27.6863Z" fill="white"/>
<path d="M38.5448 25.4996L38.3672 27.166L40.0352 27.3442L40.2129 25.6777L38.5448 25.4996Z" fill="white"/>
<path d="M34.5713 30.2428L34.3931 31.9092L36.061 32.0879L36.2393 30.4215L34.5713 30.2428Z" fill="white"/>
<path d="M37.4961 27.9852L37.3179 29.6516L38.9858 29.8303L39.1641 28.1639L37.4961 27.9852Z" fill="white"/>
<path d="M37.038 30.5564L36.9128 31.7271L38.0855 31.8527L38.2107 30.6821L37.038 30.5564Z" fill="white"/>
<path d="M39.9671 29.0993L39.8428 30.27L41.0156 30.3949L41.1399 29.2241L39.9671 29.0993Z" fill="white"/>
<path d="M52.5121 41.4487C52.3129 41.3361 51.9497 41.1463 51.4484 40.9887C50.7253 40.7571 49.7163 40.5834 48.5208 40.7732C48.1191 40.8375 47.6949 40.9436 47.2546 41.1013C47.2129 41.1173 47.1711 41.1302 47.1293 41.1463C46.9043 41.2299 46.6826 41.3329 46.4577 41.4455C46.268 41.542 46.0752 41.6481 45.8856 41.7639C45.4518 42.0245 45.0244 42.3204 44.6098 42.6421C44.1374 39.7824 44.3688 37.1286 44.4781 35.8258C44.4781 35.8194 44.4877 35.8162 44.4941 35.8194C45.5064 36.4563 45.2236 38.2352 45.0083 38.7466C45.0051 38.7563 45.018 38.7627 45.0276 38.7563C46.2873 37.2669 45.6735 35.6199 45.4132 35.205C45.4068 35.1953 45.4197 35.1857 45.4293 35.1921C45.6125 35.3401 45.7603 35.4977 45.8856 35.6585C46.2745 36.1571 46.4191 36.6943 46.4577 37.1704C46.4769 37.4213 46.4705 37.6529 46.4577 37.8524C46.4544 37.907 46.4512 37.9553 46.4448 38.0035C46.4448 38.01 46.4512 38.0132 46.4577 38.01H46.4641C46.8047 37.3409 46.9686 36.3308 46.4577 35.3497C46.3195 35.0828 46.1331 34.819 45.8856 34.5649C45.8149 34.4909 45.7378 34.4201 45.6575 34.3461C45.651 34.3397 45.6575 34.3268 45.6671 34.33C45.7442 34.3493 45.8149 34.3719 45.8856 34.3944C46.1009 34.4684 46.2905 34.5713 46.4577 34.6967C46.8401 34.9798 47.1004 35.3658 47.2546 35.7711C47.3832 36.1057 47.441 36.4499 47.441 36.7555C47.441 36.7683 47.4571 36.7683 47.4603 36.7555C47.6981 35.8837 47.5535 35.2243 47.2546 34.745C47.0425 34.4008 46.7501 34.1499 46.4577 33.973C46.2584 33.854 46.0592 33.7703 45.8856 33.7189C45.7828 33.6867 45.6928 33.6674 45.6125 33.6577C45.5996 33.6577 45.6028 33.6384 45.6125 33.6384C45.7057 33.6288 45.7956 33.6256 45.8824 33.6224C46.0945 33.6191 46.2841 33.6384 46.4544 33.6674C46.7919 33.7317 47.0554 33.8475 47.2514 33.9826C47.5728 34.1982 47.7335 34.4523 47.7881 34.5552C47.7945 34.5649 47.8074 34.5584 47.8074 34.5488C47.7624 34.0888 47.5503 33.7285 47.2546 33.4712C47.0265 33.2717 46.7469 33.1334 46.4577 33.0498C46.268 32.9983 46.0752 32.9694 45.8856 32.9661C45.6285 32.9661 45.3811 33.0047 45.1722 33.0948C45.1626 33.098 45.1561 33.0884 45.1593 33.0787C45.3457 32.8117 45.6093 32.6509 45.8856 32.564C46.0784 32.5061 46.2745 32.4836 46.4577 32.4965C46.6344 32.5061 46.7951 32.5448 46.9268 32.6059C46.9365 32.6091 46.9429 32.5994 46.9365 32.5898C46.7919 32.4257 46.628 32.2971 46.4577 32.2006C46.2745 32.0976 46.0817 32.0365 45.8856 32.014C45.3747 31.9561 44.8541 32.1748 44.507 32.6992C44.5038 32.7056 44.4941 32.7056 44.4909 32.6992C44.4234 32.5801 44.3592 32.4482 44.3013 32.3099C44.1631 31.9883 44.0507 31.628 43.9896 31.2677C43.9896 31.2548 43.9735 31.2548 43.9735 31.2677C43.9125 31.628 43.7968 31.9915 43.6586 32.3131C43.5975 32.4515 43.5365 32.5801 43.469 32.6959C43.4658 32.7024 43.4561 32.7024 43.4529 32.6959C42.8488 31.7792 41.7144 31.7985 41.0234 32.5898C41.017 32.5962 41.0234 32.6091 41.0331 32.6059C41.4926 32.3871 42.3635 32.4515 42.8006 33.0787C42.807 33.0884 42.8006 33.098 42.7877 33.0948C42.1161 32.8117 41.0748 32.9951 40.5189 33.6577C40.3196 33.8926 40.1847 34.1917 40.1493 34.5488C40.1493 34.5584 40.1622 34.5649 40.1686 34.5552C40.2104 34.4748 40.3196 34.3011 40.5189 34.1242C40.8435 33.8379 41.4091 33.5484 42.3442 33.6352C42.3571 33.6352 42.3571 33.6545 42.3442 33.6545C41.8654 33.7124 40.8788 34.1402 40.5157 35.1181C40.355 35.5492 40.3132 36.0896 40.4932 36.7522C40.4932 36.7619 40.5125 36.7619 40.5125 36.7522C40.5125 36.7362 40.5125 36.7233 40.5125 36.7072C40.5221 35.8194 41.0299 34.6292 42.2864 34.3268C42.296 34.3268 42.3024 34.3365 42.296 34.3429C40.8917 35.5781 41.0299 37.1029 41.4894 38.0035C41.4958 38.0132 41.5087 38.01 41.5087 37.9971C41.4476 37.3152 41.3994 36.1025 42.5242 35.1857C42.5338 35.1793 42.5467 35.1857 42.5403 35.1986C42.28 35.6167 41.6662 37.2605 42.9259 38.7498C42.9323 38.7595 42.9484 38.7498 42.9452 38.7402C42.7331 38.2319 42.4503 36.4499 43.4593 35.813C43.4658 35.8097 43.4754 35.813 43.4754 35.8194C43.5847 37.1222 43.8161 39.776 43.3437 42.6356C42.5306 42.0116 41.6726 41.4648 40.8242 41.1431C40.7181 41.1045 40.6153 41.0691 40.5157 41.0337C39.6384 40.7442 38.835 40.6638 38.1344 40.696C37.0096 40.7442 36.1484 41.082 35.676 41.3168C35.5796 41.365 35.4992 41.4101 35.4382 41.4455C35.4125 41.4615 35.4317 41.4969 35.4574 41.4873C35.5314 41.4648 35.6021 41.4422 35.676 41.4229C36.5404 41.1785 37.3599 41.1141 38.1344 41.1817C38.9796 41.2557 39.7733 41.4873 40.5157 41.8218C41.5569 42.2914 42.4985 42.9605 43.3501 43.6682C42.1482 44.7169 41.1327 45.7366 40.5157 46.0936C40.4835 46.1097 40.4546 46.129 40.4257 46.1451C40.2779 45.9424 40.0208 45.8266 39.7412 45.8878C39.497 45.9424 39.2977 46.1387 39.2431 46.3799C39.1949 46.5954 39.2495 46.8303 39.3716 46.9525C39.6994 47.2806 40.0786 47.3031 40.5157 47.1198C41.348 46.7691 42.3828 45.669 43.6522 44.5046C43.7582 44.4081 43.8643 44.3083 43.9735 44.2118C44.0828 44.3083 44.1888 44.4048 44.2949 44.5013C44.8701 45.0289 45.3972 45.5436 45.8792 45.981C46.0784 46.1612 46.268 46.3285 46.4512 46.4764C46.734 46.708 47.0008 46.8978 47.2482 47.0297C47.7335 47.287 48.1544 47.3192 48.5144 47.0007C48.5336 46.9847 48.5529 46.9686 48.5722 46.9493C48.6558 46.8656 48.7522 46.5922 48.7008 46.3767C48.6718 46.2512 48.6043 46.1387 48.5112 46.0518C48.4276 45.9714 48.3183 45.9103 48.2026 45.8845C47.9231 45.8234 47.666 45.9392 47.5181 46.1419C47.4346 46.1001 47.3446 46.0422 47.245 45.9746C47.0168 45.817 46.7501 45.595 46.448 45.3313C46.268 45.1736 46.0784 44.9999 45.876 44.8166C45.4839 44.4595 45.0533 44.0671 44.597 43.665C45.0019 43.3272 45.4293 42.9991 45.876 42.6968C46.0624 42.5713 46.252 42.4491 46.448 42.3333C46.7083 42.1789 46.9718 42.0373 47.245 41.9054C47.6531 41.7092 48.0741 41.5452 48.5112 41.4197C49.4174 41.1592 50.3911 41.0723 51.4388 41.2396C51.7794 41.2943 52.1265 41.3747 52.4832 41.484C52.5121 41.4937 52.5282 41.4551 52.5057 41.4422" fill="white"/>
<path d="M7.09988 70.6604H6.30933V71.4517H7.09988V70.6604Z" fill="white"/>
<path d="M59.5336 69.7468V64.5228H58.7623V68.9748H55.854V64.5228H55.0827V68.9748H52.0202V64.5228H50.8086C50.3266 64.5228 49.8895 64.5872 49.4975 64.719C49.1054 64.8509 48.7712 65.0343 48.4948 65.2659C48.2185 65.5007 48.0064 65.7774 47.8553 66.099C47.7043 66.4207 47.6304 66.7649 47.6304 67.138C47.6304 67.5948 47.7171 67.984 47.8907 68.3121C48.0642 68.6402 48.2956 68.9072 48.5848 69.1195C48.874 69.3318 49.2115 69.4895 49.5971 69.5892C49.9827 69.6921 50.3877 69.7436 50.8119 69.7436H59.5336V69.7468ZM49.6774 68.8525C49.4236 68.7689 49.2018 68.6499 49.0122 68.4923C48.8226 68.3347 48.6748 68.1417 48.5655 67.9165C48.4563 67.6881 48.4016 67.4308 48.4016 67.1412C48.4016 66.8517 48.4627 66.6137 48.5816 66.3853C48.7005 66.1569 48.858 65.9639 49.054 65.7999C49.25 65.6358 49.4718 65.5104 49.7224 65.4235C49.9731 65.3367 50.2302 65.2948 50.4937 65.2948H51.2553V68.978H50.4937C50.2045 68.978 49.9345 68.9362 49.6807 68.8525H49.6774Z" fill="white"/>
<path d="M43.8272 62.8403H43.0559V69.7434H43.8272V62.8403Z" fill="white"/>
<path d="M52.0198 62.8403H51.2292V63.6316H52.0198V62.8403Z" fill="white"/>
<path d="M59.5435 70.6509H58.7529V71.4422H59.5435V70.6509Z" fill="white"/>
<path d="M8.44533 70.6604H7.65479V71.4517H8.44533V70.6604Z" fill="white"/>
<path d="M40.0424 68.9752H38.7827C38.3328 68.9752 37.9793 68.9108 37.7222 68.7822C37.4651 68.6535 37.2626 68.4605 37.1148 68.2064C37.1598 68.0069 37.1823 67.7657 37.1823 67.4858V65.0025H36.411V67.6081C36.411 68.052 36.2921 68.4058 36.0543 68.6728C35.8165 68.9398 35.4566 69.0717 34.9745 69.0717C34.7496 69.0717 34.5439 69.0363 34.3575 68.9655C34.1711 68.8948 34.0104 68.7983 33.8755 68.676C33.7405 68.5538 33.6344 68.4122 33.5573 68.2482C33.4802 68.0841 33.4384 67.9104 33.432 67.7239V65.0025H32.6607V67.666C32.6607 67.904 32.6254 68.1034 32.5547 68.2675C32.484 68.4315 32.3876 68.5666 32.2654 68.6728C32.1433 68.779 32.0051 68.8562 31.8509 68.9044C31.6966 68.9527 31.5327 68.9752 31.3592 68.9752H29.8681V65.0025H29.0968V68.9752H25.0541L26.4006 65.752C26.1949 65.5719 25.9764 65.4046 25.745 65.247C25.5136 65.0894 25.2758 64.951 25.0316 64.832C24.7874 64.713 24.5399 64.6197 24.2893 64.5522C24.0386 64.4846 23.7911 64.4524 23.5469 64.4524C23.3027 64.4524 23.0456 64.4878 22.7949 64.5522C22.5443 64.6197 22.2968 64.7098 22.0494 64.8256C21.8019 64.9414 21.5641 65.0797 21.3359 65.2405C21.1078 65.4014 20.8957 65.5687 20.6964 65.7488L22.0526 68.972H19.3853V64.52H18.1545C17.6788 64.52 17.245 64.5875 16.8529 64.7227C16.4609 64.8578 16.1267 65.0411 15.8471 65.2759C15.5675 65.5108 15.3522 65.7906 15.1979 66.1123C15.0437 66.4372 14.9666 66.7878 14.9666 67.1674C14.9666 67.6241 15.0501 68.0134 15.2204 68.335C15.3908 68.6599 15.6221 68.9269 15.9146 69.1328C16.207 69.3419 16.5444 69.4963 16.9301 69.5928C17.3157 69.6925 17.7238 69.7408 18.1545 69.7408H18.6172V69.9627C18.6172 70.368 18.5015 70.6543 18.2701 70.828C18.0388 71.0017 17.7142 71.0886 17.2964 71.0886C17.0586 71.0886 16.8465 71.0661 16.6569 71.021C16.4673 70.976 16.252 70.8988 16.0078 70.7894L15.7667 71.5293C16.0624 71.6386 16.3227 71.719 16.5509 71.7737C16.779 71.8284 17.0072 71.8574 17.2386 71.8574C17.9906 71.8574 18.5337 71.6804 18.8743 71.3234C19.215 70.9663 19.3853 70.487 19.3853 69.8855V69.7408H31.3528C31.7256 69.7408 32.0566 69.6603 32.349 69.4995C32.6414 69.3387 32.876 69.1231 33.056 68.8562C33.2424 69.165 33.4963 69.4062 33.8176 69.5767C34.139 69.7504 34.5214 69.8373 34.9649 69.8373C35.4084 69.8373 35.8197 69.7568 36.1443 69.596C36.4689 69.4352 36.7163 69.1907 36.8898 68.8562C36.9541 68.9655 37.0312 69.0717 37.1244 69.1778C37.2176 69.284 37.3365 69.3773 37.4844 69.4609C37.6322 69.5445 37.8121 69.6121 38.0178 69.6636C38.1753 69.7022 38.3649 69.7215 38.5706 69.7311V69.7408H40.7944V62.8376H40.0231V68.972L40.0424 68.9752ZM18.6301 68.9752H17.8492C17.5599 68.9752 17.29 68.9366 17.0361 68.8562C16.7822 68.7757 16.5605 68.6599 16.3677 68.5055C16.1749 68.3511 16.0238 68.1613 15.9146 67.9394C15.8053 67.7142 15.7507 67.4569 15.7507 67.1706C15.7507 66.8843 15.8085 66.643 15.9274 66.4114C16.0463 66.1798 16.2038 65.9836 16.3998 65.8196C16.5959 65.6555 16.8176 65.5301 17.0683 65.44C17.3189 65.3499 17.5792 65.3049 17.8492 65.3049H18.6301V68.9784V68.9752ZM22.8753 68.9752L21.6734 66.0222C21.969 65.7713 22.2711 65.588 22.5828 65.4754C22.8945 65.3596 23.2191 65.3017 23.5598 65.3017C23.9004 65.3017 24.2507 65.3692 24.5913 65.5075C24.932 65.6459 25.2212 65.8163 25.459 66.0222L24.2571 68.9752H22.8817H22.8753Z" fill="white"/>
<path d="M4.46047 62.8403H3.66992V63.6316H4.46047V62.8403Z" fill="white"/>
<path d="M82.3677 62.8403H81.5771V63.6316H82.3677V62.8403Z" fill="white"/>
<path d="M75.5259 62.8403H74.7546V69.7434H75.5259V62.8403Z" fill="white"/>
<path d="M50.669 62.8403H49.8784V63.6316H50.669V62.8403Z" fill="white"/>
<path d="M13.7583 66.7176C13.7583 66.4152 13.7198 66.1353 13.6362 65.8716C13.5559 65.6078 13.4338 65.3858 13.2666 65.1993C13.061 64.9741 12.8328 64.8068 12.5789 64.6942C12.3251 64.5817 12.0166 64.527 11.6502 64.527H11.0814V65.2958H11.7562C11.9426 65.2958 12.1194 65.3376 12.2865 65.4148C12.4536 65.4952 12.5918 65.5981 12.7011 65.7268C12.8103 65.8619 12.8842 66.0099 12.926 66.1707C12.9678 66.3316 12.9903 66.5246 12.9903 66.7465V68.9789H9.37817V69.7477H13.7583V66.7176Z" fill="white"/>
<path d="M116.279 62.8403H115.507V69.7434H116.279V62.8403Z" fill="white"/>
<path d="M83.7185 62.8403H82.928V63.6316H83.7185V62.8403Z" fill="white"/>
<path d="M113.264 62.8403H112.493V68.9746H109.845C110.005 68.6208 110.086 68.2444 110.086 67.8391C110.086 67.4338 110.012 67.0703 109.87 66.7294C109.726 66.3852 109.53 66.0892 109.279 65.8415C109.029 65.5906 108.733 65.3944 108.389 65.2497C108.045 65.1049 107.676 65.0341 107.277 65.0341C106.879 65.0341 106.532 65.1081 106.197 65.2561C105.863 65.4041 105.574 65.6035 105.326 65.8576C105.079 66.1117 104.886 66.4077 104.745 66.7487C104.603 67.0896 104.533 67.4531 104.533 67.8456C104.533 68.0514 104.555 68.2477 104.597 68.4374C104.639 68.6272 104.693 68.8074 104.764 68.9811H102.376C102.537 68.6272 102.617 68.2509 102.617 67.8456C102.617 67.4403 102.543 67.0768 102.402 66.7358C102.257 66.3916 102.061 66.0957 101.811 65.848C101.56 65.5971 101.264 65.4008 100.921 65.2561C100.577 65.1113 100.207 65.0406 99.8087 65.0406C99.4102 65.0406 99.0663 65.1146 98.7321 65.2625C98.3979 65.4105 98.1087 65.6099 97.8612 65.8641C97.6138 66.1182 97.4209 66.4141 97.2795 66.7551C97.1381 67.0961 97.0674 67.4596 97.0674 67.852C97.0674 68.0579 97.0899 68.2541 97.1317 68.4439C97.1735 68.6337 97.2281 68.8138 97.2988 68.9875H94.8533V62.8532H94.082V68.9875H91.6268V67.8102C91.6268 67.5142 91.5882 67.2344 91.5111 66.9674C91.434 66.7004 91.3119 66.4752 91.1448 66.2887C90.9455 66.0635 90.7206 65.8962 90.4699 65.7869C90.2192 65.6775 89.9011 65.6228 89.5155 65.6228H86.1058L87.5551 62.85H86.7164L85.2381 65.6132C85.2638 65.7804 85.3024 65.9252 85.3603 66.0474C85.4181 66.1696 85.4888 66.2854 85.5852 66.3948H89.5122C89.7565 66.3948 89.9654 66.4302 90.1421 66.5074C90.3189 66.5814 90.4603 66.6811 90.5695 66.8098C90.6788 66.9384 90.7527 67.0864 90.7913 67.2537C90.8298 67.421 90.8491 67.6075 90.8491 67.8102V68.9875H83.7245V64.5355H82.5098C82.0277 64.5355 81.5907 64.5999 81.2018 64.7318C80.8098 64.8637 80.4756 65.047 80.1992 65.2786C79.9228 65.5134 79.7107 65.7901 79.5597 66.1117C79.4086 66.4334 79.3347 66.7776 79.3347 67.1508C79.3347 67.6075 79.4215 67.9968 79.595 68.3249C79.7686 68.653 79.9999 68.92 80.2892 69.1323C80.5784 69.3446 80.9158 69.5022 81.3014 69.6019C81.6871 69.7048 82.092 69.7563 82.513 69.7563H97.7937C98.0444 70.0265 98.34 70.2388 98.6839 70.3964C99.0278 70.5541 99.4005 70.6313 99.8054 70.6313C100.21 70.6313 100.599 70.5541 100.956 70.3997C101.313 70.2453 101.618 70.0297 101.875 69.7563H105.265C105.516 70.0265 105.812 70.2388 106.156 70.3964C106.499 70.5541 106.872 70.6313 107.277 70.6313C107.682 70.6313 108.071 70.5541 108.428 70.3997C108.784 70.2453 109.09 70.0297 109.347 69.7563H113.264V62.8532V62.8403ZM82.9532 68.9746H82.1916C81.9024 68.9746 81.6325 68.9328 81.3786 68.8492C81.1247 68.7656 80.903 68.6465 80.7134 68.4889C80.5238 68.3313 80.3759 68.1383 80.2667 67.9131C80.1574 67.6847 80.1028 67.4274 80.1028 67.1379C80.1028 66.8484 80.1606 66.6103 80.2795 66.382C80.3984 66.1536 80.5559 65.9606 80.7519 65.7965C80.948 65.6325 81.1697 65.507 81.4204 65.4201C81.671 65.3333 81.9281 65.2915 82.1916 65.2915H82.9532V68.9746ZM101.685 68.6337C101.579 68.8814 101.435 69.0937 101.252 69.2738C101.068 69.4539 100.853 69.5923 100.606 69.692C100.358 69.7917 100.091 69.8399 99.8022 69.8399C99.513 69.8399 99.2591 69.7853 99.0181 69.6823C98.7771 69.5762 98.5682 69.4314 98.3915 69.2481C98.2147 69.0647 98.0765 68.8524 97.9769 68.6079C97.8773 68.3635 97.8291 68.1029 97.8291 67.8295C97.8291 67.5561 97.8805 67.2923 97.9769 67.0446C98.0765 66.7969 98.2147 66.5846 98.3882 66.4013C98.5618 66.2179 98.7674 66.0731 99.0085 65.9638C99.2495 65.8544 99.513 65.7997 99.8022 65.7997C100.091 65.7997 100.368 65.8512 100.615 65.9541C100.863 66.0571 101.078 66.1986 101.261 66.3787C101.444 66.5589 101.586 66.7712 101.689 67.0189C101.791 67.2666 101.843 67.5368 101.843 67.8327C101.843 68.1286 101.791 68.3892 101.685 68.6369V68.6337ZM109.157 68.6337C109.051 68.8814 108.906 69.0937 108.723 69.2738C108.54 69.4539 108.325 69.5923 108.077 69.692C107.83 69.7917 107.563 69.8399 107.274 69.8399C106.985 69.8399 106.731 69.7853 106.49 69.6823C106.249 69.5762 106.04 69.4314 105.863 69.2481C105.686 69.0647 105.548 68.8524 105.449 68.6079C105.349 68.3635 105.298 68.1029 105.298 67.8295C105.298 67.5561 105.349 67.2923 105.449 67.0446C105.548 66.7969 105.683 66.5846 105.857 66.4013C106.03 66.2179 106.236 66.0731 106.477 65.9638C106.718 65.8544 106.981 65.7997 107.271 65.7997C107.56 65.7997 107.836 65.8512 108.084 65.9541C108.331 66.0571 108.546 66.1986 108.73 66.3787C108.913 66.5589 109.054 66.7712 109.157 67.0189C109.26 67.2666 109.311 67.5368 109.311 67.8327C109.311 68.1286 109.257 68.3892 109.151 68.6369L109.157 68.6337Z" fill="white"/>
<path d="M2.03802 69.5924C2.42366 69.6953 2.82857 69.7468 3.24955 69.7468H8.29493V64.5228H7.52366V68.9748H4.46109V64.5228H3.24634C2.7643 64.5228 2.33046 64.5872 1.9384 64.719C1.54634 64.8509 1.21212 65.0343 0.935752 65.2659C0.659381 65.5007 0.447282 65.7774 0.296242 66.099C0.145202 66.4207 0.0712891 66.7649 0.0712891 67.138C0.0712891 67.5948 0.158057 67.984 0.331592 68.3121C0.505127 68.6402 0.736507 68.9072 1.02573 69.1195C1.31496 69.3318 1.65239 69.4895 2.03802 69.5892V69.5924ZM0.842557 67.138C0.842557 66.8614 0.903615 66.6105 1.02252 66.3821C1.14142 66.1537 1.29889 65.9607 1.49492 65.7967C1.69095 65.6326 1.91269 65.5071 2.16335 65.4203C2.41401 65.3334 2.6711 65.2916 2.93462 65.2916H3.69625V68.9748H2.93462C2.64539 68.9748 2.37545 68.933 2.12158 68.8493C1.8677 68.7657 1.64596 68.6467 1.45636 68.4891C1.26675 68.3314 1.11893 68.1384 1.00966 67.9133C0.900402 67.6849 0.84577 67.4275 0.84577 67.138H0.842557Z" fill="white"/>
<path d="M56.7276 70.6604H55.937V71.4517H56.7276V70.6604Z" fill="white"/>
<path d="M55.3765 70.6604H54.5859V71.4517H55.3765V70.6604Z" fill="white"/>
<path d="M62.535 70.7213C62.5832 70.4801 62.6089 70.2099 62.6089 69.9075V69.7434H72.5164V62.8403H71.7452V68.9746H68.4705L69.817 65.7515C69.6113 65.5713 69.3928 65.4041 69.1614 65.2464C68.93 65.0888 68.6922 64.9505 68.448 64.8315C68.2038 64.7125 67.9563 64.6192 67.7057 64.5516C67.455 64.4841 67.2075 64.4519 66.9633 64.4519C66.7191 64.4519 66.462 64.4873 66.2113 64.5516C65.9607 64.6192 65.7132 64.7093 65.4658 64.8251C65.2183 64.9409 64.9805 65.0792 64.7523 65.24C64.5242 65.4008 64.3121 65.5681 64.1128 65.7483L65.469 68.9714H62.5992V64.5195H61.828V69.9075C61.828 70.1262 61.8183 70.3096 61.7958 70.4608C61.7733 70.612 61.7348 70.7342 61.6801 70.8275C61.6255 70.9208 61.5516 70.9883 61.4584 71.0301C61.3652 71.0719 61.2463 71.0945 61.0985 71.0945C61.0278 71.0945 60.9667 71.0912 60.9153 71.0848C60.8639 71.0784 60.7932 71.0623 60.7032 71.0366L60.5007 71.7764C60.7128 71.8343 60.9217 71.8633 61.1274 71.8633C61.4038 71.8633 61.6351 71.8182 61.8247 71.7282C62.0143 71.6381 62.1654 71.5094 62.2811 71.3389C62.3968 71.1685 62.4771 70.9626 62.5253 70.7245L62.535 70.7213ZM65.0801 66.0217C65.3758 65.7708 65.6779 65.5874 65.9896 65.4748C66.3013 65.359 66.6259 65.3011 66.9665 65.3011C67.3072 65.3011 67.6575 65.3687 67.9981 65.507C68.3387 65.6453 68.628 65.8158 68.8658 66.0217L67.6639 68.9746H66.2885L65.0833 66.0217H65.0801Z" fill="white"/>
<path d="M3.11257 62.8403H2.32202V63.6316H3.11257V62.8403Z" fill="white"/>
<path d="M5.5986 74.8042H4.41277L1.79689 77.5674V74.8042H0.82959V80.2984H1.79689V78.7061L2.65171 77.8279L4.53167 80.2984H5.70143L3.31371 77.1685L5.5986 74.8042Z" fill="white"/>
<path d="M7.5486 74.8042H6.5813V80.3016H7.5486V74.8042Z" fill="white"/>
<path d="M12.8813 78.6032L9.9344 74.8042H9.04102V80.2984H9.99225V76.3901L13.0259 80.2984H13.8325V74.8042H12.8813V78.6032Z" fill="white"/>
<path d="M17.8375 78.0692H19.245V79.0986C18.9076 79.3495 18.4352 79.5136 17.9178 79.5136C16.793 79.5136 16.0475 78.6804 16.0475 77.5514V77.5353C16.0475 76.4834 16.8155 75.5956 17.831 75.5956C18.5316 75.5956 18.9462 75.824 19.3704 76.1842L19.9842 75.454C19.4186 74.9747 18.8273 74.7078 17.8696 74.7078C16.2114 74.7078 15.032 76.0105 15.032 77.5514V77.5674C15.032 79.1694 16.1632 80.3949 17.8857 80.3949C18.8594 80.3949 19.6403 80.0025 20.1802 79.5393V77.2297H17.8375V78.0692Z" fill="white"/>
<path d="M23.5649 74.8042H21.5146V80.3016H23.5649C25.2939 80.3016 26.4893 79.1018 26.4893 77.5513V77.5352C26.4893 75.988 25.2939 74.8042 23.5649 74.8042ZM25.4738 77.5674C25.4738 78.6418 24.7186 79.4202 23.5649 79.4202H22.4819V75.6824H23.5649C24.7218 75.6824 25.4738 76.4769 25.4738 77.5513V77.5674Z" fill="white"/>
<path d="M30.2791 74.7078C28.5887 74.7078 27.3965 76.0041 27.3965 77.5514V77.5674C27.3965 79.1147 28.5759 80.3949 30.2662 80.3949C31.9566 80.3949 33.1521 79.0986 33.1521 77.5514V77.5353C33.1521 75.988 31.9727 74.7078 30.2823 74.7078H30.2791ZM32.1334 77.5674C32.1334 78.6354 31.3717 79.5071 30.2791 79.5071C29.1865 79.5071 28.4088 78.6193 28.4088 77.5514V77.5353C28.4088 76.4673 29.1704 75.5956 30.263 75.5956C31.3557 75.5956 32.1334 76.4834 32.1334 77.5514V77.5674Z" fill="white"/>
<path d="M37.0528 77.4033L35.3785 74.8042H34.3469V80.2984H35.2982V76.374L37.0207 78.9506H37.0528L38.7881 76.3579V80.2984H39.7554V74.8042H38.7271L37.0528 77.4033Z" fill="white"/>
<path d="M46.1748 74.7078C44.4845 74.7078 43.2922 76.0041 43.2922 77.5514V77.5674C43.2922 79.1147 44.4716 80.3949 46.162 80.3949C47.8524 80.3949 49.0478 79.0986 49.0478 77.5514V77.5353C49.0478 75.988 47.8684 74.7078 46.1781 74.7078H46.1748ZM48.0291 77.5674C48.0291 78.6354 47.2675 79.5071 46.1748 79.5071C45.0822 79.5071 44.3045 78.6193 44.3045 77.5514V77.5353C44.3045 76.4673 45.0662 75.5956 46.1588 75.5956C47.2514 75.5956 48.0291 76.4834 48.0291 77.5514V77.5674Z" fill="white"/>
<path d="M50.2424 80.2984H51.2097V78.0628H53.9831V77.1814H51.2097V75.6824H54.3366V74.8042H50.2424V80.2984Z" fill="white"/>
<path d="M59.8795 77.1108C58.8254 76.8599 58.5748 76.6701 58.5748 76.2487V76.2326C58.5748 75.8724 58.9058 75.5797 59.4714 75.5797C59.9759 75.5797 60.4708 75.7759 60.9657 76.1458L61.4831 75.4156C60.9239 74.9685 60.2876 74.724 59.4874 74.724C58.3948 74.724 57.6075 75.377 57.6075 76.3163V76.3324C57.6075 77.3456 58.2695 77.6898 59.4392 77.9729C60.4612 78.2077 60.6797 78.42 60.6797 78.8125V78.8286C60.6797 79.2467 60.3037 79.5201 59.706 79.5201C59.0215 79.5201 58.4944 79.2596 57.9674 78.806L57.3857 79.4976C58.0477 80.0863 58.8383 80.3758 59.6803 80.3758C60.8372 80.3758 61.6438 79.7614 61.6438 78.7353V78.7192C61.6438 77.8088 61.0396 77.3939 59.8763 77.1108H59.8795Z" fill="white"/>
<path d="M64.6113 74.7661L62.1914 80.3021H63.1812L63.7468 78.9736H66.3498L66.909 80.3021H67.9309L65.5111 74.7661H64.6145H64.6113ZM64.1003 78.1179L65.0451 75.9177L65.9963 78.1179H64.1003Z" fill="white"/>
<path d="M72.2385 77.9695C72.2385 78.9827 71.7115 79.5006 70.8534 79.5006C69.9954 79.5006 69.4619 78.9506 69.4619 77.9309V74.8042H68.4946V77.9695C68.4946 79.5618 69.4073 80.3884 70.8374 80.3884C72.2674 80.3884 73.2026 79.565 73.2026 77.9244V74.8074H72.2353V77.9727L72.2385 77.9695Z" fill="white"/>
<path d="M76.6716 74.8042H74.6213V80.3016H76.6716C78.4006 80.3016 79.596 79.1018 79.596 77.5513V77.5352C79.596 75.988 78.4006 74.8042 76.6716 74.8042ZM78.5805 77.5674C78.5805 78.6418 77.8253 79.4202 76.6716 79.4202H75.5886V75.6824H76.6716C77.8285 75.6824 78.5805 76.4769 78.5805 77.5513V77.5674Z" fill="white"/>
<path d="M81.7861 74.8042H80.8188V80.3016H81.7861V74.8042Z" fill="white"/>
<path d="M87.5658 74.7661L85.146 80.3021H86.1358L86.7014 78.9736H89.3044L89.8636 80.3021H90.8855L88.4657 74.7661H87.5691H87.5658ZM87.0549 78.1179L87.9997 75.9177L88.9509 78.1179H87.0549Z" fill="white"/>
<path d="M96.2903 76.5532V76.5371C96.2903 76.0578 96.1264 75.6493 95.834 75.3501C95.4805 75.0059 94.9374 74.8 94.2464 74.8H91.7944V80.2974H92.7617V78.3803H93.97L95.323 80.2974H96.4638L94.9791 78.2162C95.7504 77.9943 96.2935 77.4539 96.2935 76.55L96.2903 76.5532ZM92.7617 77.5278V75.6814H94.1693C94.8859 75.6814 95.3101 76.0031 95.3101 76.5918V76.6079C95.3101 77.1643 94.8699 77.5278 94.1789 77.5278H92.7649H92.7617Z" fill="white"/>
<path d="M99.5934 74.7661L97.1736 80.3021H98.1634L98.729 78.9736H101.332L101.891 80.3021H102.913L100.493 74.7661H99.5967H99.5934ZM99.0825 78.1179L100.027 75.9177L100.979 78.1179H99.0825Z" fill="white"/>
<path d="M107.315 77.4419C107.723 77.2296 108.102 76.8758 108.102 76.2163V76.2003C108.102 75.8303 107.977 75.5344 107.733 75.2899C107.418 74.9747 106.923 74.8042 106.293 74.8042H103.825V80.3016H106.37C107.598 80.3016 108.404 79.7773 108.404 78.793V78.7769C108.404 78.0306 107.958 77.6607 107.312 77.4419H107.315ZM104.776 75.6599H106.168C106.788 75.6599 107.135 75.9268 107.135 76.3579V76.374C107.135 76.8758 106.717 77.1203 106.097 77.1203H104.776V75.6599ZM107.44 78.69C107.44 79.1854 107.039 79.4427 106.38 79.4427H104.776V77.9341H106.309C107.071 77.9341 107.44 78.2107 107.44 78.6739V78.69Z" fill="white"/>
<path d="M110.571 74.8042H109.604V80.3016H110.571V74.8042Z" fill="white"/>
<path d="M114.809 74.7661H113.913L111.493 80.3021H112.483L113.048 78.9736H115.651L116.211 80.3021H117.232L114.813 74.7661H114.809ZM113.402 78.1179L114.347 75.9177L115.298 78.1179H113.402Z" fill="white"/>
</svg>
