<svg width="26" height="27" viewBox="0 0 26 27" fill="none" xmlns="http://www.w3.org/2000/svg">
<g clip-path="url(#clip0_4_2406)">
<path d="M13 0.243042C7.61556 0.243042 3.25 4.6086 3.25 9.99304C3.25 12.1133 3.94509 14.0588 5.10047 15.6521C5.12119 15.6903 5.12444 15.7329 5.148 15.7695L11.648 25.5195C11.9494 25.9717 12.4572 26.243 13 26.243C13.5428 26.243 14.0506 25.9717 14.352 25.5195L20.852 15.7695C20.876 15.7329 20.8788 15.6903 20.8995 15.6521C22.0549 14.0588 22.75 12.1133 22.75 9.99304C22.75 4.6086 18.3844 0.243042 13 0.243042ZM13 13.243C11.2052 13.243 9.75 11.7879 9.75 9.99304C9.75 8.19823 11.2052 6.74304 13 6.74304C14.7948 6.74304 16.25 8.19823 16.25 9.99304C16.25 11.7879 14.7948 13.243 13 13.243Z" fill="white"/>
</g>
<defs>
<clipPath id="clip0_4_2406">
<rect width="26" height="26" fill="white" transform="translate(0 0.243042)"/>
</clipPath>
</defs>
</svg>
