<svg width="53" height="54" viewBox="0 0 53 54" fill="none" xmlns="http://www.w3.org/2000/svg">
<path fill-rule="evenodd" clip-rule="evenodd" d="M26.4249 23.0346C25.3439 17.342 32.1896 13.9558 36.2237 18.063C36.2237 18.063 38.0246 17.5586 39.61 16.5498C39.61 16.5498 39.0334 18.4952 37.0881 19.7205C37.0881 19.7205 39.25 19.4327 40.1866 18.8561C40.1866 18.8561 39.25 20.8015 37.5203 21.5224C38.4568 34.5641 24.4064 42.4898 13.0222 36.0051C13.0222 36.0051 18.6426 36.2929 21.0201 33.5554C21.0201 33.5554 17.5616 33.8432 15.8319 29.6647C15.8319 29.6647 17.1285 30.1691 18.426 29.5203C18.426 29.5203 14.391 28.8716 14.031 24.0443C14.031 24.0443 15.3275 25.0531 16.7695 24.6931C16.7695 24.6931 12.3022 22.0268 14.8241 17.1996C14.8241 17.1996 19.5801 23.2522 26.4249 23.0356V23.0346Z" fill="#1F325E"/>
</svg>
