<svg width="28" height="23" viewBox="0 0 28 23" fill="none" xmlns="http://www.w3.org/2000/svg">
<path fill-rule="evenodd" clip-rule="evenodd" d="M13.4249 7.0346C12.3439 1.34203 19.1896 -2.04425 23.2237 2.06299C23.2237 2.06299 25.0246 1.55861 26.61 0.549849C26.61 0.549849 26.0334 2.49518 24.0881 3.72052C24.0881 3.72052 26.25 3.43272 27.1866 2.85615C27.1866 2.85615 26.25 4.80147 24.5203 5.52244C25.4568 18.5641 11.4064 26.4898 0.0222168 20.0051C0.0222168 20.0051 5.64259 20.2929 8.02011 17.5554C8.02011 17.5554 4.56163 17.8432 2.83191 13.6647C2.83191 13.6647 4.12848 14.1691 5.42601 13.5203C5.42601 13.5203 1.39097 12.8716 1.03097 8.04434C1.03097 8.04434 2.32753 9.0531 3.76945 8.6931C3.76945 8.6931 -0.697772 6.02682 1.82413 1.19959C1.82413 1.19959 6.58014 7.25216 13.4249 7.03558V7.0346Z" fill="white"/>
</svg>
