<svg width="54" height="54" viewBox="0 0 54 54" fill="none" xmlns="http://www.w3.org/2000/svg">
<path fill-rule="evenodd" clip-rule="evenodd" d="M42.0986 21.0692C41.6118 17.4759 39.7848 16.8674 36.1914 16.5624C33.0857 16.319 29.5533 16.1973 26.8127 16.1973C24.0721 16.1973 20.4795 16.319 17.4339 16.5624C13.8406 16.8666 11.9526 17.4759 11.4659 21.0692C11.2833 22.7137 11.1616 24.9668 11.1616 27.2806C11.1616 29.5945 11.2833 31.9092 11.4659 33.492C11.9526 37.1462 13.8406 37.6938 17.4339 37.9989C20.4787 38.3031 24.0721 38.364 26.8127 38.364C29.5533 38.364 33.0849 38.3031 36.1914 37.9989C39.7848 37.6946 41.6118 37.1462 42.0986 33.492C42.342 31.9084 42.4637 29.5945 42.4637 27.2806C42.4637 24.9668 42.342 22.7129 42.0986 21.0692ZM23.6461 32.0309V22.5912L31.8063 27.2806L23.6461 32.0309Z" fill="#1F325E"/>
</svg>
