<svg width="32" height="23" viewBox="0 0 32 23" fill="none" xmlns="http://www.w3.org/2000/svg">
<path fill-rule="evenodd" clip-rule="evenodd" d="M31.0986 5.0692C30.6118 1.4759 28.7848 0.867408 25.1914 0.562361C22.0857 0.318964 18.5533 0.197266 15.8127 0.197266C13.0721 0.197266 9.47954 0.318964 6.43388 0.562361C2.84057 0.866607 0.952645 1.4759 0.465851 5.0692C0.283304 6.71373 0.161621 8.96676 0.161621 11.2806C0.161621 13.5945 0.283304 15.9092 0.465851 17.492C0.952645 21.1462 2.84057 21.6938 6.43388 21.9989C9.47874 22.3031 13.0721 22.364 15.8127 22.364C18.5533 22.364 22.0849 22.3031 25.1914 21.9989C28.7848 21.6946 30.6118 21.1462 31.0986 17.492C31.342 15.9084 31.4637 13.5945 31.4637 11.2806C31.4637 8.96676 31.342 6.71293 31.0986 5.0692ZM12.6461 16.0309V6.59124L20.8063 11.2806L12.6461 16.0309Z" fill="white"/>
</svg>
